<svg width="81" height="80" viewBox="0 0 81 80" fill="none" xmlns="http://www.w3.org/2000/svg">
<g clip-path="url(#clip0_17_2)">
<path d="M39.5311 65.8092C52.3304 65.2559 62.2577 54.4314 61.7044 41.6321C61.151 28.8328 50.3265 18.9055 37.5272 19.4588C24.7279 20.0122 14.8006 30.8366 15.354 43.636C15.9073 56.4353 26.7318 66.3626 39.5311 65.8092Z" fill="white"/>
<path d="M16.0287 61.7751L10.878 73.1927C10.4639 74.1018 11.1191 75.1523 12.1206 75.1716C12.5433 75.1846 12.9572 74.9947 13.2246 74.6704L20.5419 65.9891L16.0281 61.7595L16.0287 61.7751Z" fill="#1E5199"/>
<path d="M60.2485 62.9279L64.8033 74.6138C65.1721 75.5516 64.4649 76.5516 63.4634 76.5323C63.0407 76.5194 62.6411 76.3177 62.3758 75.9696L55.527 66.9157L60.2641 62.9272L60.2485 62.9279Z" fill="#1E5199"/>
<path d="M56.4722 20.3193L61.3642 25.4753L69.3984 17.8523L64.5064 12.6964L56.4722 20.3193Z" fill="#5C7AFF"/>
<path d="M73.8519 8.69478C79.143 14.2667 79.2189 22.8942 74.2575 28.5654C73.7655 29.1183 72.9058 29.1242 72.414 28.5982L53.9188 9.10313C53.4114 8.57783 53.4679 7.71544 54.0421 7.25283C59.9694 2.58739 68.5764 3.12214 73.8675 8.69411L73.8519 8.69478Z" fill="#207DFF"/>
<path d="M67.6661 8.59387C67.8576 7.68204 66.6167 6.64954 64.8944 6.2877C63.172 5.92586 61.6205 6.37172 61.429 7.28354C61.2374 8.19536 62.4783 9.22787 64.2007 9.5897C65.923 9.95154 67.4745 9.50569 67.6661 8.59387Z" fill="#FFE28C"/>
<path d="M72.3977 28.5833C72.9051 29.1086 73.7648 29.1027 74.2412 28.5505C76.8197 25.6247 78.0345 21.8978 77.8752 18.2148C67.773 19.6209 59.4828 14.1161 55.7212 11.0109L72.3814 28.5684L72.3977 28.5833Z" fill="#1E5199"/>
<path d="M67.8928 23.8373L72.3977 28.5833C72.9051 29.1086 73.7648 29.1027 74.2412 28.5505C75.2098 27.4454 75.9856 26.2236 76.5708 24.9318C72.9977 25.1019 70.0327 24.5109 67.8765 23.8224L67.8928 23.8373Z" fill="#1E4E8F"/>
<path d="M14.346 11.3907L9.19005 16.2827L16.813 24.317L21.969 19.4249L14.346 11.3907Z" fill="#5C7AFF"/>
<path d="M39.4725 11.2912C21.9253 10.8303 7.32625 24.6733 6.86532 42.2205C6.40438 59.7677 20.263 74.3661 37.8102 74.827C55.3574 75.288 69.9558 61.4293 70.4167 43.8822C70.8777 26.335 57.019 11.7366 39.4718 11.2756L39.4725 11.2912ZM38.0671 64.8562C26.0302 64.5479 16.5285 54.5299 16.8368 42.493C17.1451 30.4561 27.1631 20.9545 39.2 21.2627C51.2369 21.571 60.7386 31.589 60.4303 43.6259C60.122 55.6629 50.104 65.1645 38.0671 64.8562V64.8562Z" fill="#F2F2F2"/>
<path d="M39.5047 10.2266C21.3787 9.75945 6.2998 24.0767 5.81701 42.2033C5.34982 60.3292 19.6514 75.4088 37.7781 75.8916C55.904 76.3588 70.9836 62.0572 71.4664 43.9306C71.9336 25.8046 57.632 10.725 39.5053 10.2422L39.5047 10.2266ZM37.9287 70.3346C22.8859 69.9373 10.9762 57.3811 11.3578 42.339C11.755 27.2962 24.3113 15.3865 39.3534 15.7681C54.3961 16.1653 66.3059 28.7216 65.9243 43.7637C65.527 58.8064 52.9708 70.7162 37.9287 70.3346Z" fill="#1E5199"/>
<path d="M38.8877 21.9955C37.5259 21.9605 36.3844 23.0418 36.3495 24.4036L35.8734 42.6863C35.8385 44.0481 36.9198 45.1896 38.2816 45.2245C39.6433 45.2595 40.7849 44.1782 40.8198 42.8164L41.2959 24.5337C41.3308 23.1719 40.2495 22.0304 38.8877 21.9955V21.9955Z" fill="#1E5199"/>
<path d="M37.7494 40.51L28.1761 43.3005C26.8794 43.6849 26.1102 45.0628 26.4947 46.3595C26.8791 47.6563 28.2569 48.4254 29.5537 48.041L39.127 45.2505C40.4237 44.8661 41.1928 43.4882 40.8084 42.1915C40.424 40.8947 39.0461 40.1256 37.7494 40.51Z" fill="#1E5199"/>
<path d="M38.6421 41.6285C38.0314 41.6079 37.5359 42.0828 37.5154 42.6935C37.4949 43.3041 37.9698 43.7996 38.5804 43.8201C39.1911 43.8406 39.6866 43.3657 39.7071 42.7551C39.7276 42.1444 39.2527 41.649 38.6421 41.6285Z" fill="white"/>
<path d="M38.8635 16.4669L38.7857 19.4495L39.3947 19.4654L39.4725 16.4828L38.8635 16.4669Z" fill="#1E5199"/>
<path d="M62.0703 43.0766L62.0543 43.6856L65.0368 43.764L65.0528 43.155L62.0703 43.0766Z" fill="#1E5199"/>
<path d="M37.8375 66.3232L37.7592 69.3057L38.3682 69.3217L38.4465 66.3392L37.8375 66.3232Z" fill="#1E5199"/>
<path d="M12.2167 42.0125L12.2007 42.6215L15.1832 42.6998L15.1992 42.0908L12.2167 42.0125Z" fill="#1E5199"/>
<path d="M15.9936 29.2461L15.6826 29.77L18.2482 31.293L18.5592 30.7691L15.9936 29.2461Z" fill="#1E5199"/>
<path d="M51.7263 19.9416L50.2033 22.5072L50.7272 22.8181L52.2502 20.2526L51.7263 19.9416Z" fill="#1E5199"/>
<path d="M59.0102 54.483L58.6992 55.0069L61.2648 56.5299L61.5757 56.006L59.0102 54.483Z" fill="#1E5199"/>
<path d="M26.4894 62.9581L24.9664 65.5237L25.4903 65.8347L27.0133 63.2691L26.4894 62.9581Z" fill="#1E5199"/>
<path d="M26.0533 19.6407L25.5193 19.9339L26.9551 22.5493L27.4891 22.2561L26.0533 19.6407Z" fill="#1E5199"/>
<path d="M61.5789 29.8002L58.9635 31.2359L59.2567 31.77L61.8721 30.3342L61.5789 29.8002Z" fill="#1E5199"/>
<path d="M50.2918 63.2281L49.7578 63.5213L51.1935 66.1367L51.7276 65.8435L50.2918 63.2281Z" fill="#1E5199"/>
<path d="M17.9833 54.0093L15.368 55.4451L15.6611 55.9791L18.2765 54.5434L17.9833 54.0093Z" fill="#1E5199"/>
<path d="M5.22874 6.89231C-0.358837 12.1841 -0.893582 20.791 3.78745 26.7177C4.23446 27.2925 5.09685 27.3491 5.63776 26.841L25.1172 8.3465C25.6425 7.8391 25.6366 6.97941 25.0844 6.50295C19.4281 1.52528 10.8007 1.6012 5.22874 6.89231Z" fill="#207DFF"/>
<path d="M12.4005 7.14562C12.5495 8.06166 14.074 8.60553 15.8131 8.32709C17.5523 8.04864 18.8397 7.08613 18.7062 6.16941C18.5572 5.25337 17.0327 4.7095 15.2935 4.98795C13.5544 5.2664 12.267 6.2289 12.4005 7.14562V7.14562Z" fill="#FFE28C"/>
<path d="M2.41518 10.5324C-0.366649 15.6247 0.0660427 22.0165 3.77166 26.7189C4.23428 27.293 5.08106 27.3502 5.62197 26.8421L19.1243 14.0315C10.6031 15.4788 5.41838 13.0918 2.43011 10.5161L2.41518 10.5324Z" fill="#1E5199"/>
<path d="M0.926747 20.5878C1.38082 22.7727 2.3316 24.8736 3.77165 26.7189C4.23426 27.293 5.08105 27.3503 5.62195 26.8422L13.4173 19.4536C8.03396 21.8753 3.36249 21.2329 0.926747 20.5878V20.5878Z" fill="#1E4E8F"/>
</g>
<defs>
<clipPath id="clip0_17_2">
<rect width="77.1822" height="75.7139" fill="white" transform="translate(0 3.49146) rotate(-2.47554)"/>
</clipPath>
</defs>
</svg>
