<svg width="61" height="60" viewBox="0 0 61 60" fill="none" xmlns="http://www.w3.org/2000/svg">
<g clip-path="url(#clip0_17_2)">
<path d="M29.5437 49.0648C39.1093 48.6513 46.5285 40.5616 46.1149 30.996C45.7014 21.4304 37.6117 14.0112 28.0461 14.4247C18.4805 14.8383 11.0613 22.928 11.4748 32.4936C11.8884 42.0592 19.9781 49.4784 29.5437 49.0648Z" fill="white"/>
<path d="M11.9791 46.0499L8.1297 54.5829C7.82021 55.2623 8.30987 56.0474 9.05834 56.0618C9.37426 56.0715 9.68362 55.9296 9.88348 55.6872L15.3521 49.1993L11.9786 46.0382L11.9791 46.0499Z" fill="#1E5199"/>
<path d="M45.0269 46.9114L48.4309 55.6449C48.7066 56.3458 48.178 57.0931 47.4295 57.0788C47.1136 57.069 46.815 56.9184 46.6168 56.6582L41.4983 49.8918L45.0385 46.9109L45.0269 46.9114Z" fill="#1E5199"/>
<path d="M42.2046 15.0678L45.8607 18.9211L51.8651 13.2241L48.209 9.37076L42.2046 15.0678Z" fill="#5C7AFF"/>
<path d="M55.1934 6.38019C59.1477 10.5444 59.2045 16.9922 55.4966 21.2306C55.1288 21.6438 54.4863 21.6482 54.1188 21.2551L40.2964 6.68537C39.9172 6.29279 39.9594 5.64828 40.3885 5.30254C44.8183 1.81582 51.2507 2.21546 55.2051 6.37969L55.1934 6.38019Z" fill="#207DFF"/>
<path d="M50.5705 6.30477C50.7136 5.62332 49.7862 4.85167 48.499 4.58125C47.2118 4.31083 46.0523 4.64404 45.9091 5.32549C45.766 6.00695 46.6934 6.77859 47.9806 7.04901C49.2678 7.31943 50.4273 6.98622 50.5705 6.30477Z" fill="#FFE28C"/>
<path d="M54.1066 21.2439C54.4858 21.6365 55.1283 21.6321 55.4844 21.2194C57.4114 19.0328 58.3193 16.2475 58.2003 13.495C50.6504 14.5458 44.4547 10.4318 41.6434 8.11113L54.0944 21.2328L54.1066 21.2439Z" fill="#1E5199"/>
<path d="M50.7399 17.697L54.1066 21.2439C54.4858 21.6365 55.1283 21.6321 55.4844 21.2194C56.2082 20.3935 56.7881 19.4804 57.2254 18.515C54.555 18.6421 52.3391 18.2004 50.7277 17.6858L50.7399 17.697Z" fill="#1E4E8F"/>
<path d="M10.7215 8.39497L6.86819 12.0511L12.5653 18.0554L16.4186 14.3994L10.7215 8.39497Z" fill="#5C7AFF"/>
<path d="M29.4999 8.32063C16.386 7.97615 5.4753 18.3218 5.13081 31.4357C4.78633 44.5496 15.1436 55.4598 28.2576 55.8043C41.3715 56.1488 52.2817 45.7915 52.6261 32.6775C52.9706 19.5636 42.6133 8.65345 29.4994 8.30897L29.4999 8.32063ZM28.4495 48.3526C19.4537 48.1222 12.3527 40.6352 12.583 31.6394C12.8134 22.6435 20.3004 15.5425 29.2963 15.7729C38.2921 16.0033 45.3931 23.4902 45.1627 32.4861C44.9324 41.4819 37.4454 48.583 28.4495 48.3526V48.3526Z" fill="#F2F2F2"/>
<path d="M29.5239 7.52501C15.9775 7.17586 4.70817 17.8759 4.34736 31.4229C3.99821 44.9693 14.6866 56.2391 28.2335 56.5999C41.78 56.9491 53.0498 46.2607 53.4106 32.7137C53.7598 19.1673 43.0714 7.89749 29.5244 7.53667L29.5239 7.52501ZM28.3461 52.4468C17.1039 52.15 8.20308 42.766 8.48828 31.5243C8.78515 20.282 18.1691 11.3812 29.4109 11.6664C40.6531 11.9633 49.5539 21.3473 49.2687 32.589C48.9718 43.8312 39.5879 52.732 28.3461 52.4468Z" fill="#1E5199"/>
<path d="M29.0629 16.3205C28.0451 16.2944 27.192 17.1025 27.1659 18.1202L26.8101 31.7838C26.784 32.8016 27.5921 33.6547 28.6098 33.6808C29.6276 33.7069 30.4807 32.8988 30.5068 31.8811L30.8626 18.2175C30.8887 17.1997 30.0806 16.3466 29.0629 16.3205V16.3205Z" fill="#1E5199"/>
<path d="M28.2121 30.1574L21.0575 32.2429C20.0884 32.5301 19.5136 33.5599 19.8009 34.5291C20.0882 35.4982 21.1179 36.073 22.0871 35.7857L29.2417 33.7002C30.2108 33.4129 30.7856 32.3832 30.4983 31.414C30.211 30.4449 29.1813 29.8701 28.2121 30.1574Z" fill="#1E5199"/>
<path d="M28.8793 30.9933C28.4229 30.9779 28.0526 31.3328 28.0373 31.7892C28.022 32.2456 28.3768 32.6158 28.8332 32.6312C29.2896 32.6465 29.6599 32.2916 29.6752 31.8352C29.6905 31.3789 29.3357 31.0086 28.8793 30.9933Z" fill="white"/>
<path d="M29.0448 12.1887L28.9866 14.4178L29.4417 14.4296L29.4999 12.2006L29.0448 12.1887Z" fill="#1E5199"/>
<path d="M46.3884 32.0755L46.3764 32.5307L48.6054 32.5892L48.6174 32.1341L46.3884 32.0755Z" fill="#1E5199"/>
<path d="M28.278 49.4489L28.2194 51.6779L28.6746 51.6899L28.7331 49.4609L28.278 49.4489Z" fill="#1E5199"/>
<path d="M9.13018 31.2803L9.11823 31.7354L11.3472 31.7939L11.3592 31.3388L9.13018 31.2803Z" fill="#1E5199"/>
<path d="M11.9529 21.7393L11.7205 22.1308L13.6379 23.269L13.8703 22.8775L11.9529 21.7393Z" fill="#1E5199"/>
<path d="M38.6578 14.7855L37.5196 16.7029L37.9111 16.9353L39.0493 15.0179L38.6578 14.7855Z" fill="#1E5199"/>
<path d="M44.1014 40.6001L43.869 40.9916L45.7864 42.1298L46.0188 41.7383L44.1014 40.6001Z" fill="#1E5199"/>
<path d="M19.797 46.9341L18.6588 48.8514L19.0503 49.0838L20.1885 47.1665L19.797 46.9341Z" fill="#1E5199"/>
<path d="M19.471 14.5607L19.0719 14.7798L20.145 16.7344L20.5441 16.5153L19.471 14.5607Z" fill="#1E5199"/>
<path d="M46.0212 22.1534L44.0666 23.2264L44.2857 23.6255L46.2403 22.5525L46.0212 22.1534Z" fill="#1E5199"/>
<path d="M37.5857 47.1358L37.1866 47.3549L38.2596 49.3095L38.6588 49.0904L37.5857 47.1358Z" fill="#1E5199"/>
<path d="M13.4399 40.2461L11.4853 41.3192L11.7044 41.7183L13.659 40.6452L13.4399 40.2461Z" fill="#1E5199"/>
<path d="M3.90766 5.03325C-0.268232 8.98809 -0.667875 15.4205 2.83051 19.8498C3.16458 20.2794 3.80909 20.3217 4.21334 19.942L18.7714 6.12004C19.164 5.74083 19.1596 5.09834 18.7469 4.74226C14.5196 1.02218 8.07188 1.07892 3.90766 5.03325Z" fill="#207DFF"/>
<path d="M9.26754 5.22241C9.37893 5.90702 10.5183 6.31348 11.818 6.10538C13.1178 5.89728 14.0799 5.17795 13.9802 4.49284C13.8688 3.80823 12.7294 3.40177 11.4297 3.60987C10.1299 3.81797 9.16781 4.5373 9.26754 5.22241V5.22241Z" fill="#FFE28C"/>
<path d="M1.80497 7.75352C-0.274036 11.5593 0.0493377 16.3362 2.81874 19.8505C3.16448 20.2796 3.79732 20.3224 4.20157 19.9427L14.2926 10.3686C7.92421 11.4502 4.04942 9.66633 1.81613 7.74136L1.80497 7.75352Z" fill="#1E5199"/>
<path d="M0.692623 15.2684C1.03198 16.9013 1.74254 18.4715 2.81877 19.8506C3.16451 20.2796 3.79735 20.3224 4.2016 19.9427L10.0275 14.4208C6.00422 16.2307 2.51298 15.7506 0.692623 15.2684V15.2684Z" fill="#1E4E8F"/>
</g>
<defs>
<clipPath id="clip0_17_2">
<rect width="57.6824" height="56.585" fill="white" transform="translate(0 2.49146) rotate(-2.47554)"/>
</clipPath>
</defs>
</svg>
