<svg width="85" height="75" viewBox="0 0 85 75" fill="none" xmlns="http://www.w3.org/2000/svg">
<g clip-path="url(#clip0_18_40)">
<path d="M13.3626 13.2153L16.9387 64.9257L78.3514 60.6786L74.7753 8.96825L13.3626 13.2153Z" fill="#1E5199"/>
<path d="M18.3796 22.3629L20.9985 60.2323L73.7777 56.5823L71.1588 18.7129L18.3796 22.3629Z" fill="#F1F2F2"/>
<path d="M13.3655 13.2218L9.93406 63.9918L16.936 64.9289L13.3655 13.2218Z" fill="#6A92CB"/>
<path d="M13.3681 13.2155L13.6774 17.6877L75.0901 13.4406L74.7808 8.96846L13.3681 13.2155Z" fill="#6A92CB"/>
<path d="M17.1675 14.742C17.1919 15.1324 16.9034 15.4695 16.513 15.494C16.1226 15.5184 15.7854 15.2298 15.761 14.8395L15.5767 12.1948C15.5523 11.8044 15.8409 11.4672 16.2312 11.4428C16.6216 11.4184 16.9588 11.707 16.9832 12.0973L17.1675 14.742Z" fill="#E7475E"/>
<path d="M19.8658 14.5546C19.8902 14.945 19.6017 15.2822 19.2113 15.3066C18.8209 15.3311 18.4837 15.0425 18.4593 14.6521L18.275 12.0075C18.2506 11.6171 18.5392 11.2799 18.9295 11.2555C19.3199 11.2311 19.6571 11.5196 19.6815 11.91L19.8658 14.5546Z" fill="#E7475E"/>
<path d="M22.5641 14.3673C22.5885 14.7577 22.3 15.0949 21.9096 15.1193C21.5192 15.1437 21.182 14.8552 21.1576 14.4648L20.9733 11.8201C20.9489 11.4298 21.2375 11.0926 21.6278 11.0681C22.0182 11.0437 22.3554 11.3323 22.3798 11.7227L22.5641 14.3673Z" fill="#E7475E"/>
<path d="M25.2714 14.1859C25.2958 14.5763 25.0072 14.9135 24.6168 14.9379C24.2265 14.9623 23.8893 14.6738 23.8648 14.2834L23.6806 11.6387C23.6561 11.2484 23.9447 10.9112 24.3351 10.8868C24.7254 10.8623 25.0626 11.1509 25.0871 11.5413L25.2714 14.1859V14.1859Z" fill="#E7475E"/>
<path d="M27.9696 13.9986C27.9941 14.389 27.7055 14.7262 27.3151 14.7506C26.9247 14.775 26.5875 14.4864 26.5631 14.0961L26.3788 11.4514C26.3544 11.061 26.643 10.7238 27.0333 10.6994C27.4237 10.675 27.7609 10.9636 27.7853 11.3539L27.9696 13.9986Z" fill="#E7475E"/>
<path d="M30.6679 13.8112C30.6924 14.2016 30.4038 14.5388 30.0134 14.5632C29.623 14.5877 29.2858 14.2991 29.2614 13.9087L29.0771 11.2641C29.0527 10.8737 29.3413 10.5365 29.7317 10.5121C30.122 10.4876 30.4592 10.7762 30.4836 11.1666L30.6679 13.8112Z" fill="#E7475E"/>
<path d="M33.3662 13.6239C33.3907 14.0143 33.1021 14.3515 32.7117 14.3759C32.3213 14.4003 31.9841 14.1118 31.9597 13.7214L31.7754 11.0767C31.751 10.6864 32.0396 10.3492 32.43 10.3247C32.8203 10.3003 33.1575 10.5889 33.1819 10.9793L33.3662 13.6239Z" fill="#E7475E"/>
<path d="M36.0645 13.4366C36.0889 13.8269 35.8004 14.1641 35.41 14.1886C35.0196 14.213 34.6824 13.9244 34.658 13.5341L34.4737 10.8894C34.4493 10.499 34.7379 10.1618 35.1282 10.1374C35.5186 10.113 35.8558 10.4016 35.8802 10.7919L36.0645 13.4366V13.4366Z" fill="#E7475E"/>
<path d="M38.7628 13.2492C38.7872 13.6396 38.4987 13.9768 38.1083 14.0012C37.7179 14.0257 37.3807 13.7371 37.3563 13.3467L37.172 10.7021C37.1476 10.3117 37.4362 9.97449 37.8265 9.95006C38.2169 9.92563 38.5541 10.2142 38.5785 10.6046L38.7628 13.2492Z" fill="#E7475E"/>
<path d="M41.4611 13.0619C41.4855 13.4523 41.1969 13.7895 40.8066 13.8139C40.4162 13.8383 40.079 13.5497 40.0546 13.1594L39.8703 10.5147C39.8459 10.1244 40.1344 9.78716 40.5248 9.76273C40.9152 9.7383 41.2524 10.0269 41.2768 10.4172L41.4611 13.0619V13.0619Z" fill="#E7475E"/>
<path d="M44.1594 12.8746C44.1838 13.2649 43.8952 13.6021 43.5049 13.6265C43.1145 13.651 42.7773 13.3624 42.7529 12.972L42.5686 10.3274C42.5442 9.93701 42.8327 9.59981 43.2231 9.57538C43.6135 9.55095 43.9507 9.83953 43.9751 10.2299L44.1594 12.8746Z" fill="#E7475E"/>
<path d="M46.8577 12.6872C46.8821 13.0776 46.5935 13.4148 46.2032 13.4392C45.8128 13.4636 45.4756 13.1751 45.4512 12.7847L45.2669 10.14C45.2425 9.74968 45.531 9.41248 45.9214 9.38805C46.3118 9.36362 46.649 9.65219 46.6734 10.0426L46.8577 12.6872Z" fill="#E7475E"/>
<path d="M49.556 12.4999C49.5804 12.8903 49.2918 13.2275 48.9014 13.2519C48.5111 13.2763 48.1739 12.9877 48.1494 12.5974L47.9652 9.95271C47.9407 9.56234 48.2293 9.22515 48.6197 9.20072C49.0101 9.17629 49.3473 9.46486 49.3717 9.85523L49.556 12.4999V12.4999Z" fill="#E7475E"/>
<path d="M52.2558 12.32C52.2802 12.7104 51.9916 13.0476 51.6012 13.072C51.2109 13.0964 50.8737 12.8079 50.8492 12.4175L50.665 9.77283C50.6405 9.38246 50.9291 9.04526 51.3195 9.02083C51.7099 8.9964 52.0471 9.28498 52.0715 9.67535L52.2558 12.32Z" fill="#E7475E"/>
<path d="M54.9615 12.1312C54.9859 12.5215 54.6974 12.8587 54.307 12.8832C53.9166 12.9076 53.5794 12.619 53.555 12.2286L53.3707 9.58398C53.3463 9.19361 53.6349 8.85642 54.0252 8.83199C54.4156 8.80756 54.7528 9.09613 54.7772 9.4865L54.9615 12.1312Z" fill="#E7475E"/>
<path d="M57.6598 11.9438C57.6842 12.3342 57.3956 12.6714 57.0053 12.6958C56.6149 12.7202 56.2777 12.4317 56.2533 12.0413L56.069 9.39664C56.0446 9.00627 56.3331 8.66907 56.7235 8.64464C57.1139 8.62021 57.4511 8.90879 57.4755 9.29916L57.6598 11.9438V11.9438Z" fill="#E7475E"/>
<path d="M60.3581 11.7565C60.3825 12.1468 60.0939 12.484 59.7036 12.5085C59.3132 12.5329 58.976 12.2443 58.9516 11.854L58.7673 9.20931C58.7429 8.81894 59.0314 8.48174 59.4218 8.45731C59.8122 8.43288 60.1494 8.72146 60.1738 9.11183L60.3581 11.7565Z" fill="#E7475E"/>
<path d="M63.0564 11.5691C63.0808 11.9595 62.7922 12.2967 62.4019 12.3211C62.0115 12.3456 61.6743 12.057 61.6499 11.6666L61.4656 9.02197C61.4412 8.6316 61.7297 8.29441 62.1201 8.26998C62.5105 8.24555 62.8477 8.53412 62.8721 8.92449L63.0564 11.5691V11.5691Z" fill="#E7475E"/>
<path d="M65.7547 11.3818C65.7791 11.7722 65.4905 12.1094 65.1001 12.1338C64.7098 12.1582 64.3726 11.8696 64.3481 11.4793L64.1639 8.83463C64.1394 8.44426 64.428 8.10706 64.8184 8.08263C65.2088 8.0582 65.546 8.34677 65.5704 8.73714L65.7547 11.3818V11.3818Z" fill="#E7475E"/>
<path d="M68.453 11.1945C68.4774 11.5848 68.1888 11.922 67.7984 11.9465C67.4081 11.9709 67.0709 11.6823 67.0465 11.2919L66.8622 8.64729C66.8377 8.25692 67.1263 7.91973 67.5167 7.8953C67.9071 7.87087 68.2443 8.15944 68.2687 8.54981L68.453 11.1945Z" fill="#E7475E"/>
<path d="M71.1513 11.0071C71.1757 11.3975 70.8871 11.7347 70.4968 11.7591C70.1064 11.7835 69.7692 11.495 69.7448 11.1046L69.5605 8.45995C69.5361 8.06958 69.8246 7.73238 70.215 7.70795C70.6054 7.68352 70.9426 7.9721 70.967 8.36247L71.1513 11.0071Z" fill="#E7475E"/>
<path d="M73.8495 10.8198C73.874 11.2102 73.5854 11.5474 73.195 11.5718C72.8047 11.5962 72.4675 11.3076 72.443 10.9173L72.2588 8.27261C72.2343 7.88224 72.5229 7.54505 72.9133 7.52062C73.3036 7.49619 73.6408 7.78476 73.6653 8.17513L73.8495 10.8198V10.8198Z" fill="#E7475E"/>
<path d="M61.8705 29.9025L69.3974 29.382L68.8768 21.8551L61.35 22.3756L61.8705 29.9025Z" fill="#E6E6E6"/>
<path d="M51.8306 30.5897L59.3575 30.0692L58.837 22.5423L51.3101 23.0629L51.8306 30.5897Z" fill="#E6E6E6"/>
<path d="M41.7926 31.2911L49.3195 30.7705L48.799 23.2436L41.2721 23.7642L41.7926 31.2911Z" fill="#E6E6E6"/>
<path d="M31.7617 31.9842L39.2886 31.4637L38.7681 23.9368L31.2412 24.4574L31.7617 31.9842Z" fill="#E6E6E6"/>
<path d="M21.7298 32.6776L29.2567 32.1571L28.7362 24.6302L21.2093 25.1507L21.7298 32.6776Z" fill="#E6E6E6"/>
<path d="M62.5917 40.3256L70.1186 39.8051L69.5981 32.2782L62.0712 32.7987L62.5917 40.3256Z" fill="#E6E6E6"/>
<path d="M52.5519 41.0129L60.0787 40.4923L59.5582 32.9654L52.0313 33.486L52.5519 41.0129Z" fill="#E6E6E6"/>
<path d="M42.5139 41.7141L50.0407 41.1936L49.5202 33.6667L41.9933 34.1873L42.5139 41.7141Z" fill="#6A92CB"/>
<path d="M32.4829 42.4074L40.0098 41.8868L39.4893 34.3599L31.9624 34.8805L32.4829 42.4074Z" fill="#E6E6E6"/>
<path d="M22.451 43.1007L29.9779 42.5802L29.4574 35.0533L21.9305 35.5738L22.451 43.1007Z" fill="#E6E6E6"/>
<path d="M63.3114 50.7413L70.8383 50.2207L70.3178 42.6938L62.7909 43.2144L63.3114 50.7413Z" fill="#E6E6E6"/>
<path d="M53.273 51.436L60.7999 50.9154L60.2794 43.3885L52.7525 43.9091L53.273 51.436Z" fill="#E6E6E6"/>
<path d="M43.2346 52.1297L50.7614 51.6092L50.2409 44.0823L42.714 44.6028L43.2346 52.1297Z" fill="#E6E6E6"/>
<path d="M33.2026 52.823L40.7295 52.3025L40.209 44.7756L32.6821 45.2961L33.2026 52.823Z" fill="#E6E6E6"/>
<path d="M23.1717 53.5162L30.6986 52.9957L30.1781 45.4688L22.6512 45.9893L23.1717 53.5162Z" fill="#E6E6E6"/>
<path d="M43.6793 38.4871L45.3814 39.7407C45.5634 39.8746 45.8122 39.8399 45.9565 39.6713L48.7036 36.304C48.8464 36.128 48.8267 35.8762 48.6566 35.7245C48.485 35.5653 48.2168 35.5806 48.0591 35.7596L45.7072 38.3962C45.5614 38.5573 45.3111 38.5845 45.1366 38.4492L44.228 37.7487C44.0356 37.6015 43.7585 37.6496 43.6202 37.848L43.5727 37.9196C43.4478 38.1075 43.4914 38.3623 43.6734 38.4961L43.6793 38.4871Z" fill="white"/>
</g>
<defs>
<clipPath id="clip0_18_40">
<rect width="74.4305" height="60.5488" fill="white" transform="translate(0 14.7067) rotate(-11.396)"/>
</clipPath>
</defs>
</svg>
